<svg t="1603271221043" class="icon" viewBox="0 0 1024 1024" version="1.1" xmlns="http://www.w3.org/2000/svg" p-id="1138" width="200" height="200"><path d="M143.36 238.933C64.853 238.933 0 303.787 0 382.293c0 78.507 64.853 143.36 143.36 143.36 78.507 0 143.36-64.853 143.36-143.36 0-78.506-64.853-143.36-143.36-143.36z m0 201.387c-30.72 0-54.613-23.893-54.613-54.613s23.893-54.614 54.613-54.614 54.613 23.894 54.613 54.614c0 27.306-23.893 54.613-54.613 54.613z m0 0" p-id="1139" fill="#8a8a8a"></path><path d="M143.36 204.8c27.307 0 47.787-20.48 47.787-47.787V51.2c0-27.307-20.48-51.2-47.787-51.2S95.573 23.893 95.573 51.2v105.813c0 27.307 20.48 47.787 47.787 47.787z m0 358.4c-27.307 0-47.787 20.48-47.787 47.787V972.8c0 27.307 20.48 47.787 47.787 47.787s47.787-20.48 47.787-47.787V614.4c0-27.307-20.48-51.2-47.787-51.2z m0 0" p-id="1140" fill="#8a8a8a"></path><path d="M512 372.053c-78.507 0-143.36 64.854-143.36 143.36 0 78.507 64.853 143.36 143.36 143.36s143.36-64.853 143.36-143.36c0-78.506-64.853-143.36-143.36-143.36z m0 197.974c-30.72 0-54.613-23.894-54.613-54.614S481.28 460.8 512 460.8s54.613 23.893 54.613 54.613S542.72 570.027 512 570.027z m0 0" p-id="1141" fill="#8a8a8a"></path><path d="M512 334.507c27.307 0 47.787-20.48 47.787-47.787V47.787C559.787 20.48 539.307 0 512 0s-47.787 20.48-47.787 47.787v235.52c-3.413 30.72 20.48 51.2 47.787 51.2z m0 365.226c-27.307 0-47.787 20.48-47.787 47.787V972.8c0 27.307 20.48 47.787 47.787 47.787s47.787-20.48 47.787-47.787V747.52c0-27.307-20.48-47.787-47.787-47.787z m0 0" p-id="1142" fill="#8a8a8a"></path><path d="M880.64 498.347c-78.507 0-143.36 64.853-143.36 143.36s64.853 143.36 143.36 143.36c78.507 0 143.36-64.854 143.36-143.36s-64.853-143.36-143.36-143.36z m0 197.973c-30.72 0-54.613-23.893-54.613-54.613s23.893-54.614 54.613-54.614 54.613 23.894 54.613 54.614-23.893 54.613-54.613 54.613z m0 0" p-id="1143" fill="#8a8a8a"></path><path d="M880.64 460.8c27.307 0 47.787-20.48 47.787-47.787V47.787C928.427 20.48 907.947 0 880.64 0s-47.787 20.48-47.787 47.787V409.6c-3.413 27.307 20.48 51.2 47.787 51.2z m0 365.227c-27.307 0-47.787 20.48-47.787 47.786v102.4c0 27.307 20.48 47.787 47.787 47.787s47.787-20.48 47.787-47.787v-102.4c0-27.306-20.48-47.786-47.787-47.786z m0 0" p-id="1144" fill="#8a8a8a"></path></svg>
