<?xml version="1.0" standalone="no"?><!DOCTYPE svg PUBLIC "-//W3C//DTD SVG 1.1//EN" "http://www.w3.org/Graphics/SVG/1.1/DTD/svg11.dtd"><svg t="1603267879130" class="icon" viewBox="0 0 1024 1024" version="1.1" xmlns="http://www.w3.org/2000/svg" p-id="1326" xmlns:xlink="http://www.w3.org/1999/xlink" width="200" height="200"><defs><style type="text/css"></style></defs><path d="M552.96 532.48h-81.92c-54.613 0-98.987 40.96-98.987 92.16v307.2c0 51.2 44.374 92.16 98.987 92.16h81.92c54.613 0 98.987-40.96 98.987-92.16v-307.2c-3.414-51.2-44.374-92.16-98.987-92.16z m13.653 399.36c0 6.827-6.826 13.653-13.653 13.653h-81.92c-6.827 0-13.653-6.826-13.653-13.653v-307.2c0-6.827 6.826-13.653 13.653-13.653h81.92c3.413 0 6.827 0 10.24 3.413 3.413 3.413 3.413 6.827 3.413 10.24v307.2z" p-id="1327"></path><path d="M907.947 34.133L587.093 252.587 430.08 146.773c-17.067-10.24-37.547-10.24-54.613 0L34.133 378.88c-10.24 6.827-17.066 17.067-17.066 27.307 0 10.24 3.413 20.48 10.24 30.72 6.826 6.826 20.48 13.653 34.133 13.653 10.24 0 20.48-3.413 27.307-10.24l314.026-211.627 157.014 105.814c17.066 10.24 40.96 10.24 58.026 0l341.334-235.52c20.48-13.654 23.893-44.374 6.826-64.854-17.066-10.24-40.96-13.653-58.026 0z" p-id="1328"></path><path d="M180.907 484.693h-81.92c-51.2 0-95.574 37.547-98.987 88.747v361.813C0 986.453 44.373 1024 98.987 1024h81.92c51.2 0 95.573-37.547 98.986-88.747V573.44c-3.413-47.787-47.786-88.747-98.986-88.747z m13.653 450.56c0 3.414 0 6.827-3.413 10.24-3.414 3.414-6.827 3.414-10.24 3.414h-81.92c-3.414 0-6.827 0-10.24-3.414-3.414-3.413-3.414-6.826-3.414-10.24V573.44c0-3.413 0-6.827 3.414-10.24 3.413-3.413 6.826-3.413 10.24-3.413h81.92c3.413 0 6.826 0 10.24 3.413 3.413 3.413 3.413 6.827 3.413 10.24v361.813z m730.453-563.2h-81.92c-54.613 0-98.986 40.96-98.986 92.16V931.84c0 51.2 44.373 92.16 98.986 92.16h81.92c54.614 0 98.987-40.96 98.987-92.16V464.213c0-51.2-44.373-92.16-98.987-92.16z m0 573.44h-81.92c-3.413 0-6.826 0-10.24-3.413-3.413-3.413-3.413-6.827-3.413-10.24V464.213c0-6.826 6.827-13.653 13.653-13.653h81.92c6.827 0 13.654 6.827 13.654 13.653V931.84c3.413 6.827-3.414 13.653-13.654 13.653z" p-id="1329"></path></svg>