<svg t="1603274580858" class="icon" viewBox="0 0 1024 1024" version="1.1" xmlns="http://www.w3.org/2000/svg" p-id="27073" width="200" height="200"><path d="M427.96 311.8h503.57c15.43-0.05 27.92-12.54 27.97-27.97v-69.95c-0.05-15.43-12.54-27.92-27.97-27.97H427.96c-15.43 0.05-27.92 12.54-27.97 27.97v69.95c0.05 15.42 12.54 27.92 27.97 27.97z m0 279.76h503.57c15.43-0.05 27.92-12.54 27.97-27.97v-69.95c-0.05-15.43-12.54-27.92-27.97-27.97H427.96c-15.43 0.05-27.92 12.54-27.97 27.97v69.95c0.05 15.42 12.54 27.92 27.97 27.97z m0 279.75h503.57c15.43-0.05 27.92-12.54 27.97-27.97v-69.95c-0.05-15.43-12.54-27.92-27.97-27.97H427.96c-15.43 0.05-27.92 12.54-27.97 27.97v69.95c0.05 15.43 12.54 27.92 27.97 27.97zM176.18 724.45c-46.36-0.88-84.65 35.98-85.53 82.34-0.88 46.36 35.98 84.65 82.34 85.53 1.06 0.02 2.13 0.02 3.19 0 46.36 0 83.93-37.58 83.93-83.93s-37.58-83.94-83.93-83.94z m161.74-522.82L211.67 327.89l-27.28 27.28c-8.61 8.22-22.15 8.22-30.76 0l-83.25-82.89c-8.21-8.19-8.22-21.49-0.03-29.7l0.03-0.03 27.46-27.46c8.19-8.21 21.49-8.22 29.7-0.03l0.03 0.03 39.7 38.64 111.38-110.68c8.19-8.21 21.49-8.22 29.7-0.03l0.03 0.03 29.73 28.85c8.05 8.31 7.97 21.53-0.19 29.73z m0 279.06L211.67 606.95l-27.46 27.46c-8.61 8.22-22.15 8.22-30.76 0l-83.07-83.07c-8.21-8.19-8.22-21.49-0.03-29.7l0.03-0.03 27.46-27.46c8.19-8.21 21.49-8.22 29.7-0.03l0.03 0.03 39.7 38.64 111.38-111.38c8.19-8.21 21.49-8.22 29.7-0.03l0.03 0.03 29.73 29.73c8.08 8.23 8 21.43-0.19 29.55z" p-id="27074" fill="#8a8a8a"></path></svg>
